<svg xmlns="http://www.w3.org/2000/svg" width="512" height="512" viewBox="0 0 512 512" fill="none">
  <defs>
    <linearGradient id="bg" x1="56" y1="56" x2="456" y2="456" gradientUnits="userSpaceOnUse">
      <stop stop-color="#2563EB" stop-opacity="0.12"/>
      <stop offset="1" stop-color="#059669" stop-opacity="0.10"/>
    </linearGradient>
    <linearGradient id="stroke" x1="160" y1="160" x2="392" y2="392" gradientUnits="userSpaceOnUse">
      <stop stop-color="#059669"/>
      <stop offset="1" stop-color="#2563EB"/>
    </linearGradient>
  </defs>

  <rect x="56" y="56" width="400" height="400" rx="48" fill="url(#bg)"/>
  <circle cx="148" cy="148" r="68" fill="#2563EB" fill-opacity="0.06"/>
  <circle cx="382" cy="382" r="78" fill="#059669" fill-opacity="0.06"/>

  <!-- magnifier -->
  <g stroke="url(#stroke)" stroke-width="14" stroke-linecap="round" stroke-linejoin="round">
    <circle cx="238" cy="236" r="66" fill="none"/>
    <path d="M286 286l62 62"/>
  </g>

  <!-- card -->
  <g>
    <rect x="164" y="280" width="220" height="120" rx="22" fill="#ffffff" fill-opacity="0.9"/>
    <rect x="190" y="308" width="96" height="18" rx="9" fill="#111827" fill-opacity="0.12"/>
    <rect x="190" y="340" width="152" height="14" rx="7" fill="#111827" fill-opacity="0.10"/>
    <rect x="190" y="366" width="120" height="14" rx="7" fill="#111827" fill-opacity="0.08"/>
    <rect x="318" y="306" width="46" height="46" rx="14" fill="#2563EB" fill-opacity="0.12"/>
  </g>

  <!-- subtle shine -->
  <path d="M110 124c62-50 150-72 246-62" stroke="#ffffff" stroke-opacity="0.55" stroke-width="10" stroke-linecap="round"/>
</svg>
