<svg xmlns="http://www.w3.org/2000/svg" width="512" height="512" viewBox="0 0 512 512" fill="none">
  <defs>
    <linearGradient id="bg" x1="56" y1="56" x2="456" y2="456" gradientUnits="userSpaceOnUse">
      <stop stop-color="#2563EB" stop-opacity="0.14"/>
      <stop offset="1" stop-color="#059669" stop-opacity="0.12"/>
    </linearGradient>
    <linearGradient id="stroke" x1="120" y1="120" x2="392" y2="392" gradientUnits="userSpaceOnUse">
      <stop stop-color="#2563EB"/>
      <stop offset="1" stop-color="#1D4ED8"/>
    </linearGradient>
    <filter id="soft" x="0" y="0" width="512" height="512" filterUnits="userSpaceOnUse" color-interpolation-filters="sRGB">
      <feGaussianBlur stdDeviation="10"/>
    </filter>
  </defs>

  <rect x="56" y="56" width="400" height="400" rx="48" fill="url(#bg)"/>
  <circle cx="376" cy="140" r="54" fill="#2563EB" fill-opacity="0.08"/>
  <circle cx="150" cy="382" r="74" fill="#059669" fill-opacity="0.06"/>

  <!-- tag badge -->
  <g transform="translate(318 84)">
    <path d="M18 16h62a10 10 0 0 1 10 10v36L62 90H18a10 10 0 0 1-10-10V26a10 10 0 0 1 10-10Z" fill="#ffffff" fill-opacity="0.92"/>
    <circle cx="72" cy="34" r="6" fill="#2563EB" fill-opacity="0.8"/>
    <path d="M22 52h50" stroke="#111827" stroke-opacity="0.18" stroke-width="8" stroke-linecap="round"/>
  </g>

  <!-- simplified bike -->
  <g stroke="url(#stroke)" stroke-width="14" stroke-linecap="round" stroke-linejoin="round">
    <circle cx="176" cy="320" r="54" fill="none"/>
    <circle cx="342" cy="320" r="54" fill="none"/>
    <path d="M210 320h72l-38-96h-50l-18 46"/>
    <path d="M244 224l98 96"/>
    <path d="M232 204h46"/>
    <path d="M282 224h40"/>
  </g>

  <!-- subtle shine -->
  <path d="M98 120c52-42 124-62 210-58" stroke="#ffffff" stroke-opacity="0.55" stroke-width="10" stroke-linecap="round"/>
</svg>
