<svg xmlns="http://www.w3.org/2000/svg" width="900" height="760" viewBox="0 0 900 760">
  <rect width="900" height="760" fill="#ffffff"/>
  <g fill="none" stroke-linecap="round" stroke-linejoin="round">
    <g opacity="0.48" stroke="#8b8b8b" stroke-width="22">
      <circle cx="185" cy="72" r="122"/>
      <circle cx="462" cy="356" r="198"/>
      <circle cx="704" cy="512" r="154"/>
      <circle cx="764" cy="84" r="118"/>
      <circle cx="92" cy="536" r="132"/>
      <circle cx="888" cy="280" r="126"/>
    </g>
    <g opacity="0.38" stroke="#7f7f7f" stroke-width="6">
      <circle cx="185" cy="72" r="102"/>
      <circle cx="462" cy="356" r="166"/>
      <circle cx="704" cy="512" r="128"/>
      <circle cx="764" cy="84" r="96"/>
      <circle cx="92" cy="536" r="108"/>
      <circle cx="888" cy="280" r="104"/>
    </g>
    <g opacity="0.38" stroke="#909090" stroke-width="2.2">
      <path d="M185 72 63 -50M185 72 185 -50M185 72 307 -50M185 72 63 194M185 72 185 194M185 72 307 194"/>
      <path d="M462 356 264 158M462 356 462 158M462 356 660 158M462 356 264 554M462 356 462 554M462 356 660 554"/>
      <path d="M704 512 550 358M704 512 704 358M704 512 858 358M704 512 550 666M704 512 704 666M704 512 858 666"/>
      <path d="M764 84 646 -34M764 84 764 -34M764 84 882 -34M764 84 646 202M764 84 764 202M764 84 882 202"/>
      <path d="M92 536 -40 404M92 536 92 404M92 536 224 404M92 536 -40 668M92 536 92 668M92 536 224 668"/>
      <path d="M888 280 762 154M888 280 888 154M888 280 1014 154M888 280 762 406M888 280 888 406M888 280 1014 406"/>
    </g>
    <g opacity="0.48" stroke="#6d6d6d" stroke-width="4">
      <circle cx="185" cy="72" r="28"/>
      <circle cx="462" cy="356" r="38"/>
      <circle cx="704" cy="512" r="30"/>
      <circle cx="764" cy="84" r="28"/>
      <circle cx="92" cy="536" r="30"/>
      <circle cx="888" cy="280" r="30"/>
    </g>
    <g opacity="0.3" stroke="#555555" stroke-width="10">
      <path d="M44 218c120-48 230-62 365-28"/>
      <path d="M553 178c84 28 164 28 256-6"/>
      <path d="M530 646c96-32 188-28 292 12"/>
      <path d="M-42 684c98-28 182-24 276 18"/>
    </g>
  </g>
</svg>
